<svg xmlns="http://www.w3.org/2000/svg" viewBox="0 0 1920 420" preserveAspectRatio="xMidYMid slice">
<defs><linearGradient id="g" x1="0" y1="0" x2="1" y2="0"><stop offset="0" stop-color="#3A2E12"/><stop offset="0.16" stop-color="#12100A"/><stop offset="0.5" stop-color="#0A0806"/><stop offset="0.84" stop-color="#161009"/><stop offset="1" stop-color="#4A3A16"/></linearGradient></defs><rect width="1920" height="420" fill="url(#g)"/>
<path d="M -60 308.2 C 576 -26.8, 1306 -7.7, 1980 329.2" stroke="#F0CB5E" stroke-width="1.62" stroke-opacity="0.53" fill="none"/>
<path d="M -60 315.8 C 576 -19.4, 1306 -0.1, 1980 336.8" stroke="#E8D9A8" stroke-width="1.53" stroke-opacity="0.50" fill="none"/>
<path d="M -60 323.2 C 576 -12.1, 1306 7.6, 1980 344.2" stroke="#C9922A" stroke-width="1.15" stroke-opacity="0.61" fill="none"/>
<path d="M -60 330.8 C 576 -4.7, 1306 15.2, 1980 351.8" stroke="#F5E4B0" stroke-width="1.13" stroke-opacity="0.66" fill="none"/>
<path d="M -60 338.2 C 576 2.6, 1306 22.9, 1980 359.2" stroke="#F0CB5E" stroke-width="1.16" stroke-opacity="0.63" fill="none"/>
<path d="M -60 345.8 C 576 10.0, 1306 30.5, 1980 366.8" stroke="#E8D9A8" stroke-width="1.44" stroke-opacity="0.50" fill="none"/>
<path d="M -60 353.2 C 576 17.3, 1306 38.2, 1980 374.2" stroke="#C9922A" stroke-width="1.20" stroke-opacity="0.78" fill="none"/>
<path d="M -60 360.8 C 576 24.7, 1306 45.8, 1980 381.8" stroke="#F5E4B0" stroke-width="1.60" stroke-opacity="0.55" fill="none"/>
<path d="M -60 368.2 C 576 32.0, 1306 53.5, 1980 389.2" stroke="#F0CB5E" stroke-width="1.56" stroke-opacity="0.83" fill="none"/>
<path d="M -60 375.8 C 576 39.4, 1306 61.1, 1980 396.8" stroke="#E8D9A8" stroke-width="1.88" stroke-opacity="0.62" fill="none"/>
<path d="M -60 383.2 C 576 46.7, 1306 68.8, 1980 404.2" stroke="#C9922A" stroke-width="1.79" stroke-opacity="0.49" fill="none"/>
<path d="M -60 390.8 C 576 54.1, 1306 76.4, 1980 411.8" stroke="#F5E4B0" stroke-width="1.22" stroke-opacity="0.58" fill="none"/>
<path d="M -60 398.2 C 576 61.4, 1306 84.1, 1980 419.2" stroke="#F0CB5E" stroke-width="1.35" stroke-opacity="0.51" fill="none"/>
<path d="M -60 14.2 C 576 341.6, 1306 337.9, 1980 -6.8" stroke="#E8D9A8" stroke-width="1.57" stroke-opacity="0.54" fill="none"/>
<path d="M -60 21.8 C 576 350.5, 1306 344.0, 1980 0.8" stroke="#C9922A" stroke-width="1.40" stroke-opacity="0.71" fill="none"/>
<path d="M -60 29.2 C 576 359.3, 1306 350.2, 1980 8.2" stroke="#F5E4B0" stroke-width="1.15" stroke-opacity="0.68" fill="none"/>
<path d="M -60 36.8 C 576 368.1, 1306 356.4, 1980 15.8" stroke="#F0CB5E" stroke-width="1.26" stroke-opacity="0.49" fill="none"/>
<path d="M -60 44.2 C 576 376.9, 1306 362.6, 1980 23.2" stroke="#E8D9A8" stroke-width="1.44" stroke-opacity="0.73" fill="none"/>
<path d="M -60 51.8 C 576 385.8, 1306 368.7, 1980 30.8" stroke="#C9922A" stroke-width="1.57" stroke-opacity="0.59" fill="none"/>
<path d="M -60 59.2 C 576 394.6, 1306 374.9, 1980 38.2" stroke="#F5E4B0" stroke-width="1.34" stroke-opacity="0.64" fill="none"/>
<path d="M -60 66.8 C 576 403.4, 1306 381.1, 1980 45.8" stroke="#F0CB5E" stroke-width="1.66" stroke-opacity="0.77" fill="none"/>
<path d="M -60 74.2 C 576 412.2, 1306 387.3, 1980 53.2" stroke="#E8D9A8" stroke-width="1.56" stroke-opacity="0.56" fill="none"/>
<path d="M -60 81.8 C 576 421.1, 1306 393.4, 1980 60.8" stroke="#C9922A" stroke-width="1.80" stroke-opacity="0.67" fill="none"/>
<path d="M -60 89.2 C 576 429.9, 1306 399.6, 1980 68.2" stroke="#F5E4B0" stroke-width="1.33" stroke-opacity="0.75" fill="none"/>
<path d="M -60 96.8 C 576 438.7, 1306 405.8, 1980 75.8" stroke="#F0CB5E" stroke-width="1.19" stroke-opacity="0.84" fill="none"/>
<path d="M -60 104.2 C 576 447.5, 1306 412.0, 1980 83.2" stroke="#E8D9A8" stroke-width="1.71" stroke-opacity="0.63" fill="none"/>
<path d="M -60 182.3 C 576 -107.4, 1306 387.9, 1980 140.2" stroke="#C9922A" stroke-width="1.13" stroke-opacity="0.65" fill="none"/>
<path d="M -60 189.8 C 576 -100.6, 1306 396.1, 1980 147.8" stroke="#F5E4B0" stroke-width="1.71" stroke-opacity="0.72" fill="none"/>
<path d="M -60 197.3 C 576 -93.7, 1306 404.2, 1980 155.2" stroke="#F0CB5E" stroke-width="1.80" stroke-opacity="0.69" fill="none"/>
<path d="M -60 204.8 C 576 -86.9, 1306 412.4, 1980 162.8" stroke="#E8D9A8" stroke-width="1.66" stroke-opacity="0.59" fill="none"/>
<path d="M -60 212.3 C 576 -80.1, 1306 420.6, 1980 170.2" stroke="#C9922A" stroke-width="1.56" stroke-opacity="0.69" fill="none"/>
<path d="M -60 219.8 C 576 -73.2, 1306 428.7, 1980 177.8" stroke="#F5E4B0" stroke-width="1.77" stroke-opacity="0.64" fill="none"/>
<path d="M -60 227.3 C 576 -66.4, 1306 436.9, 1980 185.2" stroke="#F0CB5E" stroke-width="1.48" stroke-opacity="0.83" fill="none"/>
<path d="M -60 234.8 C 576 -59.6, 1306 445.1, 1980 192.8" stroke="#E8D9A8" stroke-width="1.15" stroke-opacity="0.72" fill="none"/>
<path d="M -60 242.3 C 576 -52.8, 1306 453.3, 1980 200.2" stroke="#C9922A" stroke-width="1.62" stroke-opacity="0.74" fill="none"/>
<path d="M -60 249.8 C 576 -45.9, 1306 461.4, 1980 207.8" stroke="#F5E4B0" stroke-width="1.76" stroke-opacity="0.85" fill="none"/>
<path d="M -60 257.2 C 576 -39.1, 1306 469.6, 1980 215.2" stroke="#F0CB5E" stroke-width="1.41" stroke-opacity="0.58" fill="none"/>
<path d="M -60 264.8 C 576 -32.3, 1306 477.8, 1980 222.8" stroke="#E8D9A8" stroke-width="1.12" stroke-opacity="0.72" fill="none"/>
<path d="M -60 272.2 C 576 -25.4, 1306 485.9, 1980 230.2" stroke="#C9922A" stroke-width="1.23" stroke-opacity="0.64" fill="none"/>
<path d="M -60 77.2 C 576 418.3, 1306 -95.8, 1980 224.2" stroke="#F5E4B0" stroke-width="1.71" stroke-opacity="0.49" fill="none"/>
<path d="M -60 84.8 C 576 425.0, 1306 -87.5, 1980 231.8" stroke="#F0CB5E" stroke-width="1.30" stroke-opacity="0.52" fill="none"/>
<path d="M -60 92.2 C 576 431.7, 1306 -79.2, 1980 239.2" stroke="#E8D9A8" stroke-width="1.80" stroke-opacity="0.62" fill="none"/>
<path d="M -60 99.8 C 576 438.5, 1306 -71.0, 1980 246.8" stroke="#C9922A" stroke-width="1.46" stroke-opacity="0.50" fill="none"/>
<path d="M -60 107.2 C 576 445.2, 1306 -62.7, 1980 254.2" stroke="#F5E4B0" stroke-width="1.81" stroke-opacity="0.68" fill="none"/>
<path d="M -60 114.8 C 576 451.9, 1306 -54.4, 1980 261.8" stroke="#F0CB5E" stroke-width="1.79" stroke-opacity="0.78" fill="none"/>
<path d="M -60 122.2 C 576 458.6, 1306 -46.1, 1980 269.2" stroke="#E8D9A8" stroke-width="1.43" stroke-opacity="0.57" fill="none"/>
<path d="M -60 129.8 C 576 465.4, 1306 -37.9, 1980 276.8" stroke="#C9922A" stroke-width="1.81" stroke-opacity="0.60" fill="none"/>
<path d="M -60 137.2 C 576 472.1, 1306 -29.6, 1980 284.2" stroke="#F5E4B0" stroke-width="1.22" stroke-opacity="0.83" fill="none"/>
<path d="M -60 144.8 C 576 478.8, 1306 -21.3, 1980 291.8" stroke="#F0CB5E" stroke-width="1.29" stroke-opacity="0.53" fill="none"/>
<path d="M -60 152.2 C 576 485.5, 1306 -13.0, 1980 299.2" stroke="#E8D9A8" stroke-width="1.49" stroke-opacity="0.56" fill="none"/>
<path d="M -60 159.8 C 576 492.3, 1306 -4.8, 1980 306.8" stroke="#C9922A" stroke-width="1.31" stroke-opacity="0.69" fill="none"/>
<path d="M -60 167.2 C 576 499.0, 1306 3.5, 1980 314.2" stroke="#F5E4B0" stroke-width="1.44" stroke-opacity="0.47" fill="none"/>
<path d="M -60 350.2 C 576 182.4, 1306 -48.9, 1980 98.2" stroke="#F0CB5E" stroke-width="1.86" stroke-opacity="0.68" fill="none"/>
<path d="M -60 357.8 C 576 189.8, 1306 -41.3, 1980 105.8" stroke="#E8D9A8" stroke-width="1.51" stroke-opacity="0.73" fill="none"/>
<path d="M -60 365.2 C 576 197.3, 1306 -33.8, 1980 113.2" stroke="#C9922A" stroke-width="1.64" stroke-opacity="0.70" fill="none"/>
<path d="M -60 372.8 C 576 204.8, 1306 -26.3, 1980 120.8" stroke="#F5E4B0" stroke-width="1.82" stroke-opacity="0.49" fill="none"/>
<path d="M -60 380.2 C 576 212.3, 1306 -18.8, 1980 128.2" stroke="#F0CB5E" stroke-width="1.80" stroke-opacity="0.77" fill="none"/>
<path d="M -60 387.8 C 576 219.8, 1306 -11.3, 1980 135.8" stroke="#E8D9A8" stroke-width="1.41" stroke-opacity="0.77" fill="none"/>
<path d="M -60 395.2 C 576 227.3, 1306 -3.8, 1980 143.2" stroke="#C9922A" stroke-width="1.18" stroke-opacity="0.62" fill="none"/>
<path d="M -60 402.8 C 576 234.7, 1306 3.8, 1980 150.8" stroke="#F5E4B0" stroke-width="1.15" stroke-opacity="0.71" fill="none"/>
<path d="M -60 410.2 C 576 242.2, 1306 11.3, 1980 158.2" stroke="#F0CB5E" stroke-width="1.27" stroke-opacity="0.49" fill="none"/>
<path d="M -60 417.8 C 576 249.7, 1306 18.8, 1980 165.8" stroke="#E8D9A8" stroke-width="1.37" stroke-opacity="0.53" fill="none"/>
<path d="M -60 425.2 C 576 257.2, 1306 26.3, 1980 173.2" stroke="#C9922A" stroke-width="1.10" stroke-opacity="0.49" fill="none"/>
<path d="M -60 432.8 C 576 264.7, 1306 33.8, 1980 180.8" stroke="#F5E4B0" stroke-width="1.18" stroke-opacity="0.53" fill="none"/>
<path d="M -60 440.2 C 576 272.2, 1306 41.3, 1980 188.2" stroke="#F0CB5E" stroke-width="1.12" stroke-opacity="0.61" fill="none"/>
<path d="M -60 -27.8 C 576 109.5, 1306 381.0, 1980 245.2" stroke="#E8D9A8" stroke-width="1.22" stroke-opacity="0.70" fill="none"/>
<path d="M -60 -20.2 C 576 118.5, 1306 387.0, 1980 252.8" stroke="#C9922A" stroke-width="1.38" stroke-opacity="0.56" fill="none"/>
<path d="M -60 -12.8 C 576 127.5, 1306 393.0, 1980 260.2" stroke="#F5E4B0" stroke-width="1.20" stroke-opacity="0.61" fill="none"/>
<path d="M -60 -5.2 C 576 136.5, 1306 399.0, 1980 267.8" stroke="#F0CB5E" stroke-width="1.89" stroke-opacity="0.79" fill="none"/>
<path d="M -60 2.2 C 576 145.5, 1306 405.0, 1980 275.2" stroke="#E8D9A8" stroke-width="1.49" stroke-opacity="0.65" fill="none"/>
<path d="M -60 9.8 C 576 154.5, 1306 411.0, 1980 282.8" stroke="#C9922A" stroke-width="1.18" stroke-opacity="0.50" fill="none"/>
<path d="M -60 17.2 C 576 163.5, 1306 417.0, 1980 290.2" stroke="#F5E4B0" stroke-width="1.31" stroke-opacity="0.60" fill="none"/>
<path d="M -60 24.8 C 576 172.5, 1306 423.0, 1980 297.8" stroke="#F0CB5E" stroke-width="1.23" stroke-opacity="0.78" fill="none"/>
<path d="M -60 32.2 C 576 181.5, 1306 429.0, 1980 305.2" stroke="#E8D9A8" stroke-width="1.86" stroke-opacity="0.48" fill="none"/>
<path d="M -60 39.8 C 576 190.5, 1306 435.0, 1980 312.8" stroke="#C9922A" stroke-width="1.22" stroke-opacity="0.67" fill="none"/>
<path d="M -60 47.2 C 576 199.5, 1306 441.0, 1980 320.2" stroke="#F5E4B0" stroke-width="1.12" stroke-opacity="0.68" fill="none"/>
<path d="M -60 54.8 C 576 208.5, 1306 447.0, 1980 327.8" stroke="#F0CB5E" stroke-width="1.88" stroke-opacity="0.67" fill="none"/>
<path d="M -60 62.2 C 576 217.5, 1306 453.0, 1980 335.2" stroke="#E8D9A8" stroke-width="1.66" stroke-opacity="0.80" fill="none"/>
</svg>
