<svg xmlns="http://www.w3.org/2000/svg" viewBox="0 0 1920 420" preserveAspectRatio="xMidYMid slice">
<path d="M -60 308.2 C 576 -32.9, 1306 -1.6, 1980 329.2" stroke="#F0CB5E" stroke-width="1.32" stroke-opacity="0.42" fill="none"/>
<path d="M -60 315.8 C 576 -24.6, 1306 5.1, 1980 336.8" stroke="#E8D9A8" stroke-width="1.69" stroke-opacity="0.49" fill="none"/>
<path d="M -60 323.2 C 576 -16.3, 1306 11.8, 1980 344.2" stroke="#C9922A" stroke-width="1.81" stroke-opacity="0.64" fill="none"/>
<path d="M -60 330.8 C 576 -8.0, 1306 18.5, 1980 351.8" stroke="#F5E4B0" stroke-width="1.44" stroke-opacity="0.44" fill="none"/>
<path d="M -60 338.2 C 576 0.3, 1306 25.2, 1980 359.2" stroke="#F0CB5E" stroke-width="1.27" stroke-opacity="0.42" fill="none"/>
<path d="M -60 345.8 C 576 8.6, 1306 31.9, 1980 366.8" stroke="#E8D9A8" stroke-width="1.12" stroke-opacity="0.58" fill="none"/>
<path d="M -60 353.2 C 576 16.9, 1306 38.6, 1980 374.2" stroke="#C9922A" stroke-width="1.62" stroke-opacity="0.48" fill="none"/>
<path d="M -60 360.8 C 576 25.1, 1306 45.4, 1980 381.8" stroke="#F5E4B0" stroke-width="1.28" stroke-opacity="0.60" fill="none"/>
<path d="M -60 368.2 C 576 33.4, 1306 52.1, 1980 389.2" stroke="#F0CB5E" stroke-width="1.75" stroke-opacity="0.61" fill="none"/>
<path d="M -60 375.8 C 576 41.7, 1306 58.8, 1980 396.8" stroke="#E8D9A8" stroke-width="1.74" stroke-opacity="0.41" fill="none"/>
<path d="M -60 383.2 C 576 50.0, 1306 65.5, 1980 404.2" stroke="#C9922A" stroke-width="1.37" stroke-opacity="0.65" fill="none"/>
<path d="M -60 390.8 C 576 58.3, 1306 72.2, 1980 411.8" stroke="#F5E4B0" stroke-width="1.87" stroke-opacity="0.46" fill="none"/>
<path d="M -60 398.2 C 576 66.6, 1306 78.9, 1980 419.2" stroke="#F0CB5E" stroke-width="1.17" stroke-opacity="0.53" fill="none"/>
<path d="M -60 14.2 C 576 355.7, 1306 323.8, 1980 -6.8" stroke="#E8D9A8" stroke-width="1.58" stroke-opacity="0.70" fill="none"/>
<path d="M -60 21.8 C 576 362.3, 1306 332.2, 1980 0.8" stroke="#C9922A" stroke-width="1.68" stroke-opacity="0.68" fill="none"/>
<path d="M -60 29.2 C 576 369.0, 1306 340.5, 1980 8.2" stroke="#F5E4B0" stroke-width="1.88" stroke-opacity="0.59" fill="none"/>
<path d="M -60 36.8 C 576 375.7, 1306 348.8, 1980 15.8" stroke="#F0CB5E" stroke-width="1.54" stroke-opacity="0.54" fill="none"/>
<path d="M -60 44.2 C 576 382.3, 1306 357.2, 1980 23.2" stroke="#E8D9A8" stroke-width="1.59" stroke-opacity="0.69" fill="none"/>
<path d="M -60 51.8 C 576 389.0, 1306 365.5, 1980 30.8" stroke="#C9922A" stroke-width="1.56" stroke-opacity="0.70" fill="none"/>
<path d="M -60 59.2 C 576 395.7, 1306 373.8, 1980 38.2" stroke="#F5E4B0" stroke-width="1.14" stroke-opacity="0.65" fill="none"/>
<path d="M -60 66.8 C 576 402.3, 1306 382.2, 1980 45.8" stroke="#F0CB5E" stroke-width="1.33" stroke-opacity="0.49" fill="none"/>
<path d="M -60 74.2 C 576 409.0, 1306 390.5, 1980 53.2" stroke="#E8D9A8" stroke-width="1.29" stroke-opacity="0.44" fill="none"/>
<path d="M -60 81.8 C 576 415.7, 1306 398.8, 1980 60.8" stroke="#C9922A" stroke-width="1.32" stroke-opacity="0.45" fill="none"/>
<path d="M -60 89.2 C 576 422.3, 1306 407.2, 1980 68.2" stroke="#F5E4B0" stroke-width="1.39" stroke-opacity="0.63" fill="none"/>
<path d="M -60 96.8 C 576 429.0, 1306 415.5, 1980 75.8" stroke="#F0CB5E" stroke-width="1.27" stroke-opacity="0.54" fill="none"/>
<path d="M -60 104.2 C 576 435.7, 1306 423.8, 1980 83.2" stroke="#E8D9A8" stroke-width="1.85" stroke-opacity="0.50" fill="none"/>
<path d="M -60 182.3 C 576 -117.1, 1306 397.6, 1980 140.2" stroke="#C9922A" stroke-width="1.24" stroke-opacity="0.62" fill="none"/>
<path d="M -60 189.8 C 576 -108.8, 1306 404.3, 1980 147.8" stroke="#F5E4B0" stroke-width="1.23" stroke-opacity="0.66" fill="none"/>
<path d="M -60 197.3 C 576 -100.4, 1306 410.9, 1980 155.2" stroke="#F0CB5E" stroke-width="1.89" stroke-opacity="0.54" fill="none"/>
<path d="M -60 204.8 C 576 -92.1, 1306 417.6, 1980 162.8" stroke="#E8D9A8" stroke-width="1.55" stroke-opacity="0.63" fill="none"/>
<path d="M -60 212.3 C 576 -83.8, 1306 424.3, 1980 170.2" stroke="#C9922A" stroke-width="1.77" stroke-opacity="0.64" fill="none"/>
<path d="M -60 219.8 C 576 -75.5, 1306 431.0, 1980 177.8" stroke="#F5E4B0" stroke-width="1.28" stroke-opacity="0.67" fill="none"/>
<path d="M -60 227.3 C 576 -67.2, 1306 437.7, 1980 185.2" stroke="#F0CB5E" stroke-width="1.35" stroke-opacity="0.42" fill="none"/>
<path d="M -60 234.8 C 576 -58.8, 1306 444.3, 1980 192.8" stroke="#E8D9A8" stroke-width="1.27" stroke-opacity="0.50" fill="none"/>
<path d="M -60 242.3 C 576 -50.5, 1306 451.0, 1980 200.2" stroke="#C9922A" stroke-width="1.80" stroke-opacity="0.73" fill="none"/>
<path d="M -60 249.8 C 576 -42.2, 1306 457.7, 1980 207.8" stroke="#F5E4B0" stroke-width="1.62" stroke-opacity="0.52" fill="none"/>
<path d="M -60 257.2 C 576 -33.9, 1306 464.4, 1980 215.2" stroke="#F0CB5E" stroke-width="1.83" stroke-opacity="0.55" fill="none"/>
<path d="M -60 264.8 C 576 -25.6, 1306 471.1, 1980 222.8" stroke="#E8D9A8" stroke-width="1.31" stroke-opacity="0.57" fill="none"/>
<path d="M -60 272.2 C 576 -17.2, 1306 477.7, 1980 230.2" stroke="#C9922A" stroke-width="1.55" stroke-opacity="0.50" fill="none"/>
<path d="M -60 77.2 C 576 415.4, 1306 -92.9, 1980 224.2" stroke="#F5E4B0" stroke-width="1.82" stroke-opacity="0.61" fill="none"/>
<path d="M -60 84.8 C 576 422.6, 1306 -85.1, 1980 231.8" stroke="#F0CB5E" stroke-width="1.28" stroke-opacity="0.55" fill="none"/>
<path d="M -60 92.2 C 576 429.8, 1306 -77.3, 1980 239.2" stroke="#E8D9A8" stroke-width="1.51" stroke-opacity="0.75" fill="none"/>
<path d="M -60 99.8 C 576 436.9, 1306 -69.4, 1980 246.8" stroke="#C9922A" stroke-width="1.14" stroke-opacity="0.44" fill="none"/>
<path d="M -60 107.2 C 576 444.1, 1306 -61.6, 1980 254.2" stroke="#F5E4B0" stroke-width="1.60" stroke-opacity="0.45" fill="none"/>
<path d="M -60 114.8 C 576 451.3, 1306 -53.8, 1980 261.8" stroke="#F0CB5E" stroke-width="1.44" stroke-opacity="0.68" fill="none"/>
<path d="M -60 122.2 C 576 458.4, 1306 -45.9, 1980 269.2" stroke="#E8D9A8" stroke-width="1.41" stroke-opacity="0.43" fill="none"/>
<path d="M -60 129.8 C 576 465.6, 1306 -38.1, 1980 276.8" stroke="#C9922A" stroke-width="1.52" stroke-opacity="0.75" fill="none"/>
<path d="M -60 137.2 C 576 472.7, 1306 -30.2, 1980 284.2" stroke="#F5E4B0" stroke-width="1.79" stroke-opacity="0.74" fill="none"/>
<path d="M -60 144.8 C 576 479.9, 1306 -22.4, 1980 291.8" stroke="#F0CB5E" stroke-width="1.68" stroke-opacity="0.42" fill="none"/>
<path d="M -60 152.2 C 576 487.1, 1306 -14.6, 1980 299.2" stroke="#E8D9A8" stroke-width="1.53" stroke-opacity="0.64" fill="none"/>
<path d="M -60 159.8 C 576 494.2, 1306 -6.7, 1980 306.8" stroke="#C9922A" stroke-width="1.61" stroke-opacity="0.50" fill="none"/>
<path d="M -60 167.2 C 576 501.4, 1306 1.1, 1980 314.2" stroke="#F5E4B0" stroke-width="1.45" stroke-opacity="0.45" fill="none"/>
<path d="M -60 350.2 C 576 180.7, 1306 -47.2, 1980 98.2" stroke="#F0CB5E" stroke-width="1.80" stroke-opacity="0.73" fill="none"/>
<path d="M -60 357.8 C 576 188.5, 1306 -40.0, 1980 105.8" stroke="#E8D9A8" stroke-width="1.50" stroke-opacity="0.50" fill="none"/>
<path d="M -60 365.2 C 576 196.2, 1306 -32.7, 1980 113.2" stroke="#C9922A" stroke-width="1.83" stroke-opacity="0.47" fill="none"/>
<path d="M -60 372.8 C 576 203.9, 1306 -25.4, 1980 120.8" stroke="#F5E4B0" stroke-width="1.34" stroke-opacity="0.71" fill="none"/>
<path d="M -60 380.2 C 576 211.7, 1306 -18.2, 1980 128.2" stroke="#F0CB5E" stroke-width="1.59" stroke-opacity="0.63" fill="none"/>
<path d="M -60 387.8 C 576 219.4, 1306 -10.9, 1980 135.8" stroke="#E8D9A8" stroke-width="1.71" stroke-opacity="0.46" fill="none"/>
<path d="M -60 395.2 C 576 227.1, 1306 -3.6, 1980 143.2" stroke="#C9922A" stroke-width="1.72" stroke-opacity="0.59" fill="none"/>
<path d="M -60 402.8 C 576 234.9, 1306 3.6, 1980 150.8" stroke="#F5E4B0" stroke-width="1.10" stroke-opacity="0.59" fill="none"/>
<path d="M -60 410.2 C 576 242.6, 1306 10.9, 1980 158.2" stroke="#F0CB5E" stroke-width="1.12" stroke-opacity="0.52" fill="none"/>
<path d="M -60 417.8 C 576 250.3, 1306 18.2, 1980 165.8" stroke="#E8D9A8" stroke-width="1.80" stroke-opacity="0.73" fill="none"/>
<path d="M -60 425.2 C 576 258.1, 1306 25.4, 1980 173.2" stroke="#C9922A" stroke-width="1.35" stroke-opacity="0.69" fill="none"/>
<path d="M -60 432.8 C 576 265.8, 1306 32.7, 1980 180.8" stroke="#F5E4B0" stroke-width="1.80" stroke-opacity="0.43" fill="none"/>
<path d="M -60 440.2 C 576 273.5, 1306 40.0, 1980 188.2" stroke="#F0CB5E" stroke-width="1.17" stroke-opacity="0.73" fill="none"/>
<path d="M -60 -27.8 C 576 117.1, 1306 373.4, 1980 245.2" stroke="#E8D9A8" stroke-width="1.71" stroke-opacity="0.44" fill="none"/>
<path d="M -60 -20.2 C 576 124.9, 1306 380.6, 1980 252.8" stroke="#C9922A" stroke-width="1.20" stroke-opacity="0.67" fill="none"/>
<path d="M -60 -12.8 C 576 132.8, 1306 387.7, 1980 260.2" stroke="#F5E4B0" stroke-width="1.54" stroke-opacity="0.57" fill="none"/>
<path d="M -60 -5.2 C 576 140.6, 1306 394.9, 1980 267.8" stroke="#F0CB5E" stroke-width="1.80" stroke-opacity="0.50" fill="none"/>
<path d="M -60 2.2 C 576 148.4, 1306 402.1, 1980 275.2" stroke="#E8D9A8" stroke-width="1.27" stroke-opacity="0.56" fill="none"/>
<path d="M -60 9.8 C 576 156.3, 1306 409.2, 1980 282.8" stroke="#C9922A" stroke-width="1.68" stroke-opacity="0.59" fill="none"/>
<path d="M -60 17.2 C 576 164.1, 1306 416.4, 1980 290.2" stroke="#F5E4B0" stroke-width="1.35" stroke-opacity="0.48" fill="none"/>
<path d="M -60 24.8 C 576 171.9, 1306 423.6, 1980 297.8" stroke="#F0CB5E" stroke-width="1.62" stroke-opacity="0.75" fill="none"/>
<path d="M -60 32.2 C 576 179.7, 1306 430.8, 1980 305.2" stroke="#E8D9A8" stroke-width="1.51" stroke-opacity="0.56" fill="none"/>
<path d="M -60 39.8 C 576 187.6, 1306 437.9, 1980 312.8" stroke="#C9922A" stroke-width="1.28" stroke-opacity="0.45" fill="none"/>
<path d="M -60 47.2 C 576 195.4, 1306 445.1, 1980 320.2" stroke="#F5E4B0" stroke-width="1.57" stroke-opacity="0.53" fill="none"/>
<path d="M -60 54.8 C 576 203.2, 1306 452.3, 1980 327.8" stroke="#F0CB5E" stroke-width="1.28" stroke-opacity="0.49" fill="none"/>
<path d="M -60 62.2 C 576 211.1, 1306 459.4, 1980 335.2" stroke="#E8D9A8" stroke-width="1.60" stroke-opacity="0.44" fill="none"/>
</svg>
